<svg width="44" height="44" viewBox="0 0 44 44" fill="none" xmlns="http://www.w3.org/2000/svg">
<path fill-rule="evenodd" clip-rule="evenodd" d="M9.62499 5.50049L8.24999 6.87549V37.1255L9.62499 38.5005H16.5H19.25H24.75H27.5H34.375L35.75 37.1255V6.87549L34.375 5.50049H9.62499ZM27.5 35.7505H33V31.6255H27.5V35.7505ZM27.5 28.8755H33V24.7505H27.5V28.8755ZM24.75 24.7505V28.8755H19.25V24.7505H24.75ZM27.5 22.0005H33V17.8755H27.5V22.0005ZM24.75 17.8755V22.0005H19.25V17.8755H24.75ZM24.75 31.6255V35.7505H19.25V31.6255H24.75ZM16.5 35.7505V31.6255H11V35.7505H16.5ZM16.5 28.8755V24.7505H11V28.8755H16.5ZM16.5 22.0005V17.8755H11V22.0005H16.5ZM11 15.1255V8.25049H33V15.1255H11Z" fill="#222222"/>
</svg>
