<svg width="1200" height="259" viewBox="0 0 1200 259" fill="none" xmlns="http://www.w3.org/2000/svg">
<path d="M116.421 258.756C105.075 258.756 94.89 258.24 85.8652 257.209C77.0981 256.177 67.4286 254.243 56.8567 251.407C44.9954 248.313 35.197 244.316 27.4614 239.417C19.7258 234.26 13.2794 227.169 8.12238 218.144C2.70746 209.119 0 198.418 0 186.041V75.8089C0 25.2696 38.8069 0 116.421 0C136.275 0 162.834 2.83639 196.097 8.50916V53.7624C166.186 46.5425 139.885 42.9326 117.194 42.9326C107.654 42.9326 100.176 43.1904 94.7611 43.7062C89.604 44.2218 84.1891 45.5111 78.5163 47.5739C66.3972 51.6996 60.3377 60.8534 60.3377 75.0353V181.787C60.3377 204.478 81.0949 215.823 122.609 215.823C140.401 215.823 165.413 212.084 197.645 204.607V250.247C170.054 255.919 142.98 258.756 116.421 258.756Z" fill="url(#paint0_linear_7_171)"/>
<path d="M228.463 3.8678H288.801V104.431H395.552V3.8678H455.89V254.888H395.552V147.363H288.801V254.888H228.463V3.8678Z" fill="url(#paint1_linear_7_171)"/>
<path d="M502.125 3.8678H693.581V46.8004H562.463V104.431H680.817V147.363H562.463V211.955H697.449V254.888H502.125V3.8678Z" fill="url(#paint2_linear_7_171)"/>
<path d="M730.461 3.8678H843.401C876.922 3.8678 901.16 7.99345 916.116 16.2448C931.071 24.2382 938.549 37.7755 938.549 56.8567V100.95C938.549 115.647 933.263 127.251 922.691 135.76C912.377 144.011 898.581 149.297 881.305 151.618L954.02 254.888H884.4L818.647 156.259H790.799V254.888H730.461V3.8678ZM842.627 116.421C856.809 116.421 866.479 114.616 871.636 111.006C876.793 107.138 879.371 99.7892 879.371 88.9594V71.1675C879.371 61.8848 876.535 55.5674 870.862 52.2153C865.447 48.6053 856.036 46.8004 842.627 46.8004H790.799V116.421H842.627Z" fill="url(#paint3_linear_7_171)"/>
<path d="M1048 154.325L957.102 3.8678H1025.56L1078.55 102.11L1131.15 3.8678H1200L1108.33 153.552V254.888H1048V154.325Z" fill="url(#paint4_linear_7_171)"/>
<defs>
<linearGradient id="paint0_linear_7_171" x1="0" y1="129.378" x2="1200" y2="129.378" gradientUnits="userSpaceOnUse">
<stop stop-color="#3B82F6"/>
<stop offset="1" stop-color="white"/>
</linearGradient>
<linearGradient id="paint1_linear_7_171" x1="0" y1="129.378" x2="1200" y2="129.378" gradientUnits="userSpaceOnUse">
<stop stop-color="#3B82F6"/>
<stop offset="1" stop-color="white"/>
</linearGradient>
<linearGradient id="paint2_linear_7_171" x1="0" y1="129.378" x2="1200" y2="129.378" gradientUnits="userSpaceOnUse">
<stop stop-color="#3B82F6"/>
<stop offset="1" stop-color="white"/>
</linearGradient>
<linearGradient id="paint3_linear_7_171" x1="0" y1="129.378" x2="1200" y2="129.378" gradientUnits="userSpaceOnUse">
<stop stop-color="#3B82F6"/>
<stop offset="1" stop-color="white"/>
</linearGradient>
<linearGradient id="paint4_linear_7_171" x1="0" y1="129.378" x2="1200" y2="129.378" gradientUnits="userSpaceOnUse">
<stop stop-color="#3B82F6"/>
<stop offset="1" stop-color="white"/>
</linearGradient>
</defs>
</svg>
