<svg width="24" height="24" viewBox="0 0 24 24" fill="none" xmlns="http://www.w3.org/2000/svg">
<g clip-path="url(#clip0_765_49244)">
<path d="M12 23C18.0751 23 23 18.0751 23 12C23 5.92487 18.0751 1 12 1C5.92487 1 1 5.92487 1 12C1 18.0751 5.92487 23 12 23Z" stroke="#7D7D7D" stroke-width="1.29412"/>
<path d="M17.4904 6.50958C16.0343 5.05342 14.0593 4.23535 12 4.23535C9.94067 4.23535 7.96569 5.05342 6.50952 6.50958C5.05335 7.96575 4.23529 9.94073 4.23529 12.0001C4.23529 14.0594 5.05335 16.0343 6.50952 17.4905L12 12.0001L17.4904 6.50958Z" fill="#7D7D7D"/>
</g>
<defs>
<clipPath id="clip0_765_49244">
<rect width="24" height="24" fill="white"/>
</clipPath>
</defs>
</svg>
