<svg width="24" height="24" viewBox="0 0 24 24" fill="none" xmlns="http://www.w3.org/2000/svg">
<path d="M23.6 8.79995H22C21.84 8.79995 21.68 8.91995 21.64 9.07994L20.52 12.4H19.44L18.36 10.6C18.28 10.48 18.16 10.3999 18 10.3999H16.4001V9.19994C16.4001 8.95994 16.2401 8.79995 16.0001 8.79995H13.2V7.19997H14.4C14.64 7.19997 14.8 7.03998 14.8 6.79998V4.39998C14.8 4.15998 14.64 4 14.4 4H7.2C6.96 4 6.80002 4.15998 6.80002 4.39998V6.79998C6.80002 7.03998 6.96 7.19997 7.2 7.19997H8.4V8.79995H5.19998C5.07998 8.79995 4.99997 8.83994 4.92 8.91995C4.84003 8.99997 4.8 9.07994 4.8 9.19994V10.3999H2.00002C1.76002 10.3999 1.60003 10.5599 1.60003 10.7999V13.1999H0.800016V12C0.800016 11.76 0.640031 11.6 0.400031 11.6C0.160031 11.6 0 11.76 0 12V15.2C0 15.44 0.159984 15.6 0.399984 15.6C0.639984 15.6 0.799969 15.44 0.799969 15.2V14H1.59998V17.2C1.59998 17.44 1.75997 17.6 1.99997 17.6H4.99997L6.47995 19.84C6.55997 19.92 6.67997 20 6.79997 20H18C18.16 20 18.28 19.92 18.36 19.76L19.44 17.6H20.56L21.64 19.76C21.72 19.92 21.84 20 22 20H23.6C23.84 20 24 19.84 24 19.6V9.19998C24 8.95998 23.84 8.79995 23.6 8.79995ZM7.59998 4.79997H14V6.39995H12.8H8.79998H7.59998V4.79997ZM9.20002 7.19997H12.4V8.79995H9.20002V7.19997ZM2.4 16.8V11.2H4.8V16.8H2.4ZM17.72 19.2H6.99998L5.59997 17.081V10.8V9.59997H8.79998H12.8H15.6V10.8C15.6 11.04 15.76 11.2 16 11.2H17.76L18.8 12.9333V17.04L17.72 19.2ZM19.6 16.8V13.2H20.4V16.8H19.6ZM23.2 19.2H22.24L21.2 17.1942V12.8014L22.28 9.59997H23.2V19.2Z" fill="#7D7D7D"/>
</svg>
