<svg width="24" height="24" viewBox="0 0 24 24" fill="none" xmlns="http://www.w3.org/2000/svg">
<g clip-path="url(#clip0_765_49211)">
<path d="M11.3999 2H3.39992C3.15992 2 2.99994 2.15998 2.99994 2.39998V8C2.99994 8.24 3.15992 8.39998 3.39992 8.39998H11.3999C11.6399 8.39998 11.7999 8.24 11.7999 8V2.39998C11.7999 2.15998 11.6399 2 11.3999 2ZM11 7.59997H3.79995V2.79997H11V7.59997Z" fill="#7D7D7D"/>
<path d="M11.3999 10.8H3.39992C3.15992 10.8 2.99994 10.96 2.99994 11.2V19.2001C2.99994 19.4401 3.15992 19.6 3.39992 19.6H11.3999C11.6399 19.6 11.7999 19.4401 11.7999 19.2001V11.2C11.7999 10.96 11.6399 10.8 11.3999 10.8ZM11 18.8001H3.79995V11.6001H11V18.8001Z" fill="#7D7D7D"/>
<path d="M18.32 3.99998C18.08 3.96 17.84 4.03997 17.68 4.2C17.52 4.35998 17.4 4.59998 17.4 4.83998C17.4 5.23997 17.64 5.52 18 5.64C19.12 5.96002 20.6001 8.16 20.6001 9.20002V18.72C20.6001 19.6 19.9601 20.32 19.1601 20.4C18.6801 20.44 18.24 20.32 17.9201 20C17.6001 19.68 17.4001 19.24 17.4001 18.8V11.2C17.4001 9.13495 15.8141 7.42252 13.8001 7.22016V0.399984C13.8001 0.159984 13.6401 0 13.4001 0H1.40011C1.16011 0 1.00012 0.159984 1.00012 0.399984V21.6H0.599997C0.359997 21.6 0.200012 21.76 0.200012 22V23.6C0.200012 23.84 0.359997 24 0.599997 24H14.2C14.44 24 14.6 23.84 14.6 23.6V22C14.6 21.76 14.44 21.6 14.2 21.6H13.8V9.651C14.4881 9.82978 15 10.458 15 11.2V18.68C15 20.84 16.64 22.64 18.72 22.8C18.8 22.8 18.92 22.8 19 22.8C20.04 22.8 21 22.44 21.72 21.72C22.52 20.96 23 19.92 23 18.8V9.6H23.4C23.64 9.6 23.8 9.44002 23.8 9.20002C23.8 6.96 20.72 4.40002 18.32 3.99998ZM13.8 23.2H0.999981V22.4H1.39997H13.4H13.8V23.2H13.8ZM1.8 21.6V0.800016H13V7.60003V9.20002V21.6H1.8ZM22.6 8.79998C22.36 8.79998 22.2 8.95997 22.2 9.19997V18.84C22.2 19.72 21.84 20.56 21.2 21.16C20.56 21.76 19.72 22.08 18.8 22C17.12 21.88 15.8 20.44 15.8 18.68V11.2C15.8 9.99998 14.92 9.03998 13.8 8.83997V8.04C15.36 8.24002 16.6 9.56002 16.6 11.2V18.84C16.6 19.48 16.88 20.16 17.4 20.6C17.88 21.04 18.56 21.28 19.24 21.2C20.44 21.08 21.4 20 21.4 18.72V9.20002C21.4 7.84003 19.68 5.28 18.2 4.84003C20.08 5.12002 22.6 7.08005 22.96 8.80003L22.6 8.79998Z" fill="#7D7D7D"/>
<path d="M5.39992 13.6H9.39991C9.63991 13.6 9.79989 13.44 9.79989 13.2C9.79989 12.96 9.63991 12.8 9.39991 12.8H5.39992C5.15992 12.8 4.99994 12.96 4.99994 13.2C4.99994 13.44 5.15992 13.6 5.39992 13.6Z" fill="#7D7D7D"/>
<path d="M5.39992 15.6H9.39991C9.63991 15.6 9.79989 15.44 9.79989 15.2C9.79989 14.96 9.63991 14.8 9.39991 14.8H5.39992C5.15992 14.8 4.99994 14.96 4.99994 15.2C4.99994 15.44 5.15992 15.6 5.39992 15.6Z" fill="#7D7D7D"/>
<path d="M5.39992 17.6H9.39991C9.63991 17.6 9.79989 17.44 9.79989 17.2C9.79989 16.96 9.63991 16.8 9.39991 16.8H5.39992C5.15992 16.8 4.99994 16.96 4.99994 17.2C4.99994 17.44 5.15992 17.6 5.39992 17.6Z" fill="#7D7D7D"/>
</g>
<defs>
<clipPath id="clip0_765_49211">
<rect width="24" height="24" fill="white"/>
</clipPath>
</defs>
</svg>
