<svg width="214" height="39" viewBox="0 0 214 39" fill="none" xmlns="http://www.w3.org/2000/svg">
<path d="M137.206 38.8707C136.405 38.8707 135.783 38.7953 135.342 38.6444C134.913 38.4934 134.599 38.2264 134.402 37.8434C134.216 37.4603 134.123 36.9089 134.123 36.1892C134.123 35.5507 134.211 35.0573 134.385 34.7091C134.57 34.3492 134.878 34.0938 135.308 33.9429C135.749 33.792 136.37 33.7166 137.171 33.7166H139.696V32.3758C139.696 32.0624 139.632 31.8244 139.504 31.6619C139.388 31.4877 139.185 31.3659 138.895 31.2962C138.616 31.2266 138.204 31.1917 137.658 31.1917C136.788 31.1917 135.824 31.2614 134.768 31.4007V30.2514C135.917 30.147 136.956 30.0947 137.885 30.0947C138.86 30.0947 139.579 30.1702 140.044 30.3211C140.508 30.4604 140.827 30.71 141.001 31.0698C141.176 31.4297 141.263 31.9869 141.263 32.7415V38.6966H139.748V37.8956C139.62 38.5457 138.773 38.8707 137.206 38.8707ZM137.467 37.8434C138.036 37.8434 138.517 37.8027 138.912 37.7215C139.434 37.617 139.696 37.3732 139.696 36.9901V34.6917H137.275C136.776 34.6917 136.416 34.7323 136.196 34.8136C135.975 34.8832 135.83 35.0225 135.76 35.2315C135.691 35.4404 135.656 35.7771 135.656 36.2414C135.656 36.6593 135.696 36.9843 135.778 37.2165C135.859 37.4371 136.004 37.5996 136.213 37.7041C136.422 37.7969 136.735 37.8434 137.153 37.8434H137.467Z" fill="#222222"/>
<path d="M143.737 30.2689H147.428C148.183 30.2689 148.786 30.3153 149.239 30.4082C149.692 30.4894 150.023 30.6345 150.232 30.8435C150.429 31.0408 150.557 31.244 150.615 31.4529C150.673 31.6619 150.702 31.9521 150.702 32.3235V32.6196C150.702 33.0723 150.586 33.4089 150.354 33.6295C150.121 33.8501 149.733 34.0184 149.187 34.1345V34.2041C150.534 34.4363 151.207 35.0225 151.207 35.9628V36.4678C151.207 37.0366 151.091 37.4835 150.859 37.8085C150.638 38.122 150.267 38.3483 149.744 38.4876C149.222 38.6269 148.49 38.6966 147.55 38.6966H143.737V30.2689ZM147.568 33.821C148.032 33.821 148.38 33.7862 148.612 33.7166C148.844 33.6353 149.001 33.5134 149.082 33.3509C149.164 33.1768 149.204 32.9156 149.204 32.5673V32.4629C149.204 32.1494 149.158 31.9173 149.065 31.7663C148.984 31.6154 148.821 31.511 148.577 31.4529C148.345 31.3833 147.991 31.3484 147.515 31.3484H145.304V33.821H147.568ZM147.637 37.5648C148.183 37.5648 148.595 37.5299 148.874 37.4603C149.152 37.3906 149.344 37.2804 149.448 37.1294C149.553 36.9669 149.605 36.729 149.605 36.4155V35.8583C149.605 35.5681 149.483 35.3243 149.239 35.127C148.984 34.9413 148.479 34.8484 147.724 34.8484H145.304V37.5648H147.637Z" fill="#222222"/>
<path d="M155.39 31.4181H152.43V30.2689H159.9V31.4181H156.957V38.6966H155.39V31.4181Z" fill="#222222"/>
<path d="M165.006 38.8707C164.263 38.8707 163.706 38.8417 163.335 38.7837C162.963 38.7372 162.592 38.6269 162.22 38.4528C161.837 38.2787 161.559 38.0001 161.385 37.617C161.21 37.2223 161.123 36.6941 161.123 36.0324V33.1071C161.123 32.5847 161.187 32.1262 161.315 31.7315C161.443 31.3368 161.611 31.0292 161.82 30.8086C161.994 30.6113 162.255 30.4604 162.603 30.3559C162.963 30.2398 163.329 30.1644 163.7 30.1296C164.118 30.1063 164.554 30.0947 165.006 30.0947C165.61 30.0947 166.063 30.1121 166.365 30.147C166.678 30.1702 167.009 30.2282 167.357 30.3211C167.717 30.4256 167.996 30.5823 168.193 30.7912C168.39 31.0002 168.559 31.302 168.698 31.6967C168.826 32.103 168.889 32.5731 168.889 33.1071V36.0324C168.889 37.0192 168.663 37.7389 168.21 38.1916C168.025 38.3774 167.758 38.5225 167.409 38.6269C167.061 38.7314 166.701 38.8011 166.33 38.8359C165.889 38.8591 165.447 38.8707 165.006 38.8707ZM165.006 37.8434C165.494 37.8434 165.848 37.8318 166.069 37.8085C166.289 37.7853 166.504 37.7215 166.713 37.617C166.922 37.5241 167.067 37.3732 167.148 37.1643C167.241 36.9437 167.287 36.6419 167.287 36.2588V32.8459C167.287 32.3235 167.224 31.9463 167.096 31.7141C166.968 31.4703 166.748 31.3136 166.434 31.244C166.132 31.1627 165.656 31.1221 165.006 31.1221C164.356 31.1221 163.875 31.1627 163.561 31.244C163.259 31.3136 163.045 31.4703 162.917 31.7141C162.789 31.9463 162.725 32.3235 162.725 32.8459V36.2588C162.725 36.6419 162.766 36.9437 162.847 37.1643C162.94 37.3732 163.091 37.5241 163.3 37.617C163.509 37.7215 163.724 37.7853 163.944 37.8085C164.165 37.8318 164.519 37.8434 165.006 37.8434Z" fill="#222222"/>
<path d="M174.381 38.8707C173.8 38.8707 173.376 38.8591 173.11 38.8359C172.854 38.8127 172.558 38.7546 172.221 38.6618C171.862 38.5689 171.583 38.4296 171.386 38.2439C171.188 38.0581 171.02 37.7853 170.881 37.4255C170.741 37.0772 170.672 36.6419 170.672 36.1195V33.0201C170.672 32.0798 170.852 31.4065 171.212 31.0002C171.409 30.768 171.606 30.5939 171.804 30.4778C172.013 30.3501 172.28 30.263 172.605 30.2166C172.93 30.1702 173.22 30.1412 173.475 30.1296C173.731 30.1063 174.09 30.0947 174.555 30.0947C175.356 30.0947 176.157 30.1818 176.958 30.3559V31.5052C176.029 31.273 175.164 31.1569 174.363 31.1569C173.76 31.1569 173.313 31.2033 173.022 31.2962C172.744 31.3775 172.546 31.5342 172.43 31.7663C172.326 31.9869 172.274 32.3294 172.274 32.7937V36.2414C172.274 36.6709 172.332 36.9901 172.448 37.1991C172.576 37.4081 172.796 37.559 173.11 37.6518C173.435 37.7331 173.91 37.7737 174.537 37.7737C175.385 37.7737 176.232 37.6634 177.08 37.4429V38.6269C176.29 38.7895 175.391 38.8707 174.381 38.8707Z" fill="#222222"/>
<path d="M181.309 38.8707C180.508 38.8707 179.887 38.7953 179.445 38.6444C179.016 38.4934 178.702 38.2264 178.505 37.8434C178.319 37.4603 178.227 36.9089 178.227 36.1892C178.227 35.5507 178.314 35.0573 178.488 34.7091C178.673 34.3492 178.981 34.0938 179.411 33.9429C179.852 33.792 180.473 33.7166 181.274 33.7166H183.799V32.3758C183.799 32.0624 183.735 31.8244 183.607 31.6619C183.491 31.4877 183.288 31.3659 182.998 31.2962C182.719 31.2266 182.307 31.1917 181.761 31.1917C180.891 31.1917 179.927 31.2614 178.871 31.4007V30.2514C180.02 30.147 181.059 30.0947 181.988 30.0947C182.963 30.0947 183.682 30.1702 184.147 30.3211C184.611 30.4604 184.93 30.71 185.105 31.0698C185.279 31.4297 185.366 31.9869 185.366 32.7415V38.6966H183.851V37.8956C183.723 38.5457 182.876 38.8707 181.309 38.8707ZM181.57 37.8434C182.139 37.8434 182.62 37.8027 183.015 37.7215C183.537 37.617 183.799 37.3732 183.799 36.9901V34.6917H181.378C180.879 34.6917 180.519 34.7323 180.299 34.8136C180.078 34.8832 179.933 35.0225 179.863 35.2315C179.794 35.4404 179.759 35.7771 179.759 36.2414C179.759 36.6593 179.799 36.9843 179.881 37.2165C179.962 37.4371 180.107 37.5996 180.316 37.7041C180.525 37.7969 180.838 37.8434 181.256 37.8434H181.57Z" fill="#222222"/>
<path d="M187.404 38.714C187.23 38.714 187.062 38.6966 186.9 38.6618V37.321C187.062 37.3558 187.225 37.3732 187.387 37.3732C187.886 37.3732 188.281 37.0134 188.571 36.2936C188.873 35.5623 189.024 34.2157 189.024 32.2539V30.2689H194.753V38.6966H193.186V31.2962H190.417V32.5151C190.417 34.4305 190.191 35.9454 189.738 37.0598C189.285 38.1626 188.507 38.714 187.404 38.714Z" fill="#222222"/>
<path d="M200.683 38.8707C199.94 38.8707 199.383 38.8417 199.012 38.7837C198.64 38.7372 198.269 38.6269 197.897 38.4528C197.514 38.2787 197.236 38.0001 197.061 37.617C196.887 37.2223 196.8 36.6941 196.8 36.0324V33.1071C196.8 32.5847 196.864 32.1262 196.992 31.7315C197.119 31.3368 197.288 31.0292 197.497 30.8086C197.671 30.6113 197.932 30.4604 198.28 30.3559C198.64 30.2398 199.006 30.1644 199.377 30.1296C199.795 30.1063 200.231 30.0947 200.683 30.0947C201.287 30.0947 201.74 30.1121 202.041 30.147C202.355 30.1702 202.686 30.2282 203.034 30.3211C203.394 30.4256 203.672 30.5823 203.87 30.7912C204.067 31.0002 204.235 31.302 204.375 31.6967C204.502 32.103 204.566 32.5731 204.566 33.1071V36.0324C204.566 37.0192 204.34 37.7389 203.887 38.1916C203.701 38.3774 203.435 38.5225 203.086 38.6269C202.738 38.7314 202.378 38.8011 202.007 38.8359C201.566 38.8591 201.124 38.8707 200.683 38.8707ZM200.683 37.8434C201.171 37.8434 201.525 37.8318 201.745 37.8085C201.966 37.7853 202.181 37.7215 202.39 37.617C202.599 37.5241 202.744 37.3732 202.825 37.1643C202.918 36.9437 202.964 36.6419 202.964 36.2588V32.8459C202.964 32.3235 202.901 31.9463 202.773 31.7141C202.645 31.4703 202.425 31.3136 202.111 31.244C201.809 31.1627 201.333 31.1221 200.683 31.1221C200.033 31.1221 199.551 31.1627 199.238 31.244C198.936 31.3136 198.721 31.4703 198.594 31.7141C198.466 31.9463 198.402 32.3235 198.402 32.8459V36.2588C198.402 36.6419 198.443 36.9437 198.524 37.1643C198.617 37.3732 198.768 37.5241 198.977 37.617C199.186 37.7215 199.401 37.7853 199.621 37.8085C199.842 37.8318 200.196 37.8434 200.683 37.8434Z" fill="#222222"/>
<path d="M206.662 30.2689H208.229V33.7688H212.373V30.2689H213.941V38.6966H212.373V34.918H208.229V38.6966H206.662V30.2689Z" fill="#222222"/>
<path d="M7.49316 4.68056H0.000427246V0.522097H20.7927V4.68056H13.3375V24.836H7.49316V4.68056Z" fill="#3B82F6"/>
<path d="M23.405 0.522097H33.2579C35.5806 0.522097 37.3664 0.696927 38.6152 1.04659C39.889 1.37127 40.7881 1.90825 41.3126 2.65753C41.8371 3.38182 42.0993 4.40583 42.0993 5.72954V8.72664C42.0993 9.40098 41.8246 10.0379 41.2751 10.6373C40.7506 11.2367 40.1262 11.6488 39.4019 11.8736V12.0609C40.351 12.1608 41.2127 12.5729 41.9869 13.2972C42.7861 13.9965 43.1858 14.7833 43.1858 15.6574V19.4038C43.1858 21.3769 42.399 22.7755 40.8255 23.5997C39.2521 24.4239 36.8169 24.836 33.5201 24.836H23.405V0.522097ZM33.2579 10.4125C34.182 10.4125 34.8688 10.3376 35.3184 10.1877C35.768 10.0379 36.0677 9.80059 36.2175 9.47591C36.3923 9.12625 36.4798 8.62673 36.4798 7.97736V6.77853C36.4798 6.20408 36.4048 5.7795 36.255 5.50476C36.1051 5.20505 35.7929 4.99276 35.3184 4.86788C34.8688 4.743 34.1445 4.68056 33.1455 4.68056H29.2493V10.4125H33.2579ZM33.4077 20.6775C34.8314 20.6775 35.8429 20.5152 36.4423 20.1905C37.0417 19.8658 37.3414 19.3413 37.3414 18.617V16.6689C37.3414 15.7698 37.1042 15.1329 36.6296 14.7583C36.1801 14.3836 35.3683 14.1963 34.1945 14.1963H29.2493V20.6775H33.4077Z" fill="#3B82F6"/>
<path d="M57.1884 25.2106C56.0894 25.2106 55.1029 25.1607 54.2287 25.0608C53.3796 24.9609 52.443 24.7736 51.419 24.4988C50.2701 24.1991 49.321 23.812 48.5717 23.3375C47.8225 22.8379 47.1981 22.1511 46.6986 21.277C46.1741 20.4028 45.9118 19.3663 45.9118 18.1675V7.49033C45.9118 2.59509 49.6707 0.147461 57.1884 0.147461C59.1115 0.147461 61.684 0.422194 64.9059 0.971662V5.35491C62.0087 4.65559 59.4612 4.30592 57.2633 4.30592C56.3392 4.30592 55.6149 4.3309 55.0904 4.38085C54.5909 4.4308 54.0664 4.55568 53.5169 4.75549C52.3431 5.1551 51.7561 6.04174 51.7561 7.41541V17.7554C51.7561 19.9532 53.7667 21.0522 57.7878 21.0522C59.5111 21.0522 61.9338 20.69 65.0557 19.9657V24.3864C62.3833 24.9359 59.7609 25.2106 57.1884 25.2106Z" fill="#3B82F6"/>
<path d="M75.046 0.541005H80.4783L88.2707 20.7714L88.3831 20.8088L95.7634 0.541005H101.008V24.8549H97.8239V4.28737H97.6366L89.8067 24.8549H86.5474L78.4927 4.28737H78.3054V24.8549H75.046V0.541005Z" fill="#222222"/>
<path d="M116.081 25.2295C109.288 25.2295 105.891 23.0317 105.891 18.6359V7.13461C105.891 2.48912 109.288 0.166369 116.081 0.166369C122.949 0.166369 126.384 2.47663 126.384 7.09714V18.6359C126.384 20.9837 125.434 22.6695 123.536 23.6935C121.638 24.7175 119.153 25.2295 116.081 25.2295ZM116.156 22.7944C120.627 22.7944 122.862 21.3958 122.862 18.5985V7.02222C122.862 4.02512 120.614 2.52658 116.118 2.52658C113.946 2.52658 112.272 2.86375 111.098 3.5381C109.949 4.21244 109.375 5.37381 109.375 7.02222V18.5985C109.375 21.3958 111.635 22.7944 116.156 22.7944Z" fill="#222222"/>
<path d="M137.237 3.08853H128.995V0.541005H149.113V3.08853H140.871V24.8549H137.237V3.08853Z" fill="#222222"/>
<path d="M161.924 25.2295C155.131 25.2295 151.734 23.0317 151.734 18.6359V7.13461C151.734 2.48912 155.131 0.166369 161.924 0.166369C168.793 0.166369 172.227 2.47663 172.227 7.09714V18.6359C172.227 20.9837 171.278 22.6695 169.379 23.6935C167.481 24.7175 164.996 25.2295 161.924 25.2295ZM161.999 22.7944C166.47 22.7944 168.705 21.3958 168.705 18.5985V7.02222C168.705 4.02512 166.457 2.52658 161.962 2.52658C159.789 2.52658 158.115 2.86375 156.942 3.5381C155.793 4.21244 155.218 5.37381 155.218 7.02222V18.5985C155.218 21.3958 157.479 22.7944 161.999 22.7944Z" fill="#222222"/>
<path d="M177.086 0.541005H185.028C186.152 0.541005 187.051 0.565982 187.726 0.615934C188.425 0.665885 189.162 0.778276 189.936 0.953107C190.735 1.12794 191.372 1.39018 191.847 1.73984C192.346 2.0895 192.771 2.56404 193.121 3.16346C193.445 3.7379 193.608 4.4622 193.608 5.33635V10.3939C193.608 12.417 192.821 13.8781 191.247 14.7772C189.699 15.6513 187.401 16.0884 184.354 16.0884H180.72V24.8549H177.086V0.541005ZM184.841 13.8031C186.415 13.8031 187.676 13.5159 188.625 12.9415C189.574 12.367 190.049 11.4554 190.049 10.2066V5.78592C190.049 5.11157 189.874 4.5621 189.524 4.13752C189.174 3.68795 188.675 3.37575 188.026 3.20093C187.401 3.05107 186.877 2.95117 186.452 2.90122C186.027 2.85126 185.466 2.82629 184.766 2.82629H180.683V13.8031H184.841Z" fill="#222222"/>
<path d="M207.181 25.2295C200.363 25.2295 196.954 23.0317 196.954 18.6359V7.09714C196.954 2.45165 200.363 0.128906 207.181 0.128906C209.504 0.128906 211.727 0.366176 213.85 0.840715V3.5381C211.452 2.93868 209.254 2.63897 207.256 2.63897C206.282 2.63897 205.433 2.70141 204.709 2.82629C203.984 2.92619 203.285 3.11351 202.611 3.38824C201.162 4.01264 200.438 5.23645 200.438 7.05968V18.4486C200.438 21.2459 202.76 22.6446 207.406 22.6446C209.404 22.6446 211.602 22.3448 214 21.7454V24.5177C211.877 24.9923 209.604 25.2295 207.181 25.2295Z" fill="#222222"/>
</svg>
