<svg width="24" height="24" viewBox="0 0 24 24" fill="none" xmlns="http://www.w3.org/2000/svg">
<path d="M20 9.59629V19.5C20 19.7761 19.7761 20 19.5 20H4.5C4.22386 20 4 19.7761 4 19.5V9.59629L2.03577 4.6857C1.90439 4.35726 2.14627 4 2.5 4H12.5C12.7045 4 12.8883 4.12448 12.9642 4.3143L14.5 8.15371L16.0358 4.3143C16.1117 4.12448 16.2956 4 16.5 4H21.5C21.8537 4 22.0956 4.35726 21.9642 4.6857L20 9.59629ZM15 10V19H19V10H15ZM14 10H5V19H14V10ZM4.83852 9H13.7615L12.1615 5H3.23852L4.83852 9ZM19.1615 9L20.7615 5H16.8385L15.2385 9H19.1615ZM13 15.5V17.5C13 17.7761 12.7761 18 12.5 18H9.5C9.22386 18 9 17.7761 9 17.5V15.5C9 15.2239 9.22386 15 9.5 15H12.5C12.7761 15 13 15.2239 13 15.5ZM12 16H10V17H12V16Z" fill="#7D7D7D"/>
</svg>
