<svg width="44" height="44" viewBox="0 0 44 44" fill="none" xmlns="http://www.w3.org/2000/svg">
<path d="M35.4501 29.2916L35.4373 29.2804C35.4273 29.2702 35.4167 29.2608 35.4055 29.252L35.3831 29.234L35.353 29.2116L35.3247 29.1936L35.2963 29.1773C35.2853 29.1704 35.2738 29.1644 35.2619 29.1592L35.237 29.1472L35.1966 29.1317L35.1812 29.1257L31.4446 27.8796L25.5648 21.9998L31.4472 16.1173L35.1812 14.873L35.1966 14.8669L35.237 14.8515L35.2619 14.8394L35.2963 14.8223L35.3247 14.8051C35.3342 14.7996 35.3433 14.7935 35.3522 14.787C35.3633 14.7801 35.3739 14.7723 35.384 14.7638L35.4055 14.7466C35.4166 14.738 35.4269 14.7277 35.4373 14.7183L35.4501 14.7071L38.0437 12.1169C38.1726 11.988 38.2449 11.8132 38.2449 11.631C38.2449 11.4487 38.1726 11.2739 38.0437 11.145L32.8574 5.95609C32.7285 5.82725 32.5537 5.75488 32.3714 5.75488C32.1892 5.75488 32.0144 5.82725 31.8855 5.95609L29.2919 8.54968L29.2807 8.56257L29.2523 8.59351L29.2343 8.61671C29.2266 8.62617 29.2188 8.63648 29.2119 8.64679C29.2052 8.65621 29.1988 8.66596 29.193 8.67601L29.1776 8.70265C29.1707 8.71468 29.1647 8.72671 29.1587 8.73874L29.1483 8.76195C29.1423 8.77656 29.1363 8.79031 29.1312 8.80492L29.126 8.81867L27.8799 12.5544L22.0001 18.4351L16.1185 12.5535L14.8741 8.81867C14.8741 8.81351 14.8698 8.80921 14.8681 8.80406C14.8664 8.7989 14.8578 8.77656 14.8526 8.76281C14.8475 8.74906 14.8449 8.74648 14.8406 8.73874C14.8355 8.72658 14.8294 8.7148 14.8226 8.70351C14.8174 8.69406 14.8123 8.6846 14.8062 8.67515C14.8007 8.66566 14.7947 8.65648 14.7882 8.64765C14.7813 8.63648 14.7736 8.62617 14.7658 8.61585L14.7478 8.59437C14.7392 8.5832 14.7289 8.57288 14.7194 8.56257L14.7083 8.54968L12.1173 5.95609C12.0906 5.92926 12.0618 5.90455 12.0313 5.88218L12.0124 5.86843C12.0055 5.86328 11.9978 5.85984 11.9901 5.85468C11.9823 5.84953 11.966 5.84007 11.954 5.83406C11.8611 5.78505 11.7582 5.75828 11.6532 5.75585H11.6343H11.5965H11.5681H11.5458C11.4868 5.76268 11.429 5.77742 11.3739 5.79968H11.3687C11.3156 5.82171 11.2657 5.8506 11.2201 5.88562C11.1951 5.90538 11.1702 5.92515 11.1462 5.94835L5.95639 11.1424C5.82756 11.2713 5.75519 11.4461 5.75519 11.6284C5.75519 11.8107 5.82756 11.9855 5.95639 12.1144L8.54999 14.708L8.56288 14.7191C8.57285 14.7293 8.58347 14.7387 8.59467 14.7475L8.60241 14.7552L8.61702 14.7655L8.6471 14.7879L8.67546 14.8059L8.70382 14.8223C8.71491 14.8289 8.72639 14.835 8.73819 14.8403L8.76311 14.8523L8.8035 14.8678L8.81897 14.8738L12.5555 16.1199L18.4354 21.9998L12.5538 27.8813L8.81897 29.1257L8.8035 29.1317L8.76397 29.1472L8.73733 29.1592L8.70382 29.1764L8.6746 29.1936C8.666 29.1996 8.65655 29.2048 8.64796 29.2116C8.63681 29.2186 8.62619 29.2264 8.61616 29.2348L8.59467 29.252C8.5835 29.2606 8.57319 29.2709 8.56288 29.2804L8.54999 29.2916L5.95639 31.8826C5.82756 32.0115 5.75519 32.1863 5.75519 32.3685C5.75519 32.5508 5.82756 32.7256 5.95639 32.8545L11.1427 38.0409C11.2716 38.1697 11.4464 38.2421 11.6287 38.2421C11.811 38.2421 11.9858 38.1697 12.1147 38.0409L14.7014 35.4541L14.7074 35.4481C14.7277 35.4273 14.7467 35.4052 14.7641 35.3819C14.7692 35.376 14.7738 35.3697 14.7779 35.363C14.8168 35.3106 14.8478 35.2527 14.8698 35.1912V35.1834L16.1151 31.4486L22.0001 25.5644L27.8816 31.446L29.126 35.1809V35.1886C29.148 35.2501 29.179 35.308 29.218 35.3605C29.2223 35.3665 29.2265 35.3734 29.2317 35.3794C29.2492 35.4026 29.2681 35.4247 29.2884 35.4455L29.2944 35.4507L31.8829 38.0434C31.9001 38.0598 31.9173 38.0752 31.9353 38.0898C32.0672 38.1974 32.2344 38.2522 32.4044 38.2437C32.5744 38.2351 32.7353 38.1638 32.8557 38.0434L38.0412 32.8571C38.17 32.7282 38.2424 32.5534 38.2424 32.3711C38.2424 32.1889 38.17 32.0141 38.0412 31.8851L35.4501 29.2916ZM32.3719 36.5842L30.7502 34.9634L34.9612 30.7525L36.5819 32.3741L32.3719 36.5842ZM31.2624 29.2684L33.6876 30.0779L30.0782 33.6873L29.2687 31.2578L31.2624 29.2684ZM32.3719 7.41531L36.5828 11.6262L34.962 13.2479L30.7511 9.03695L32.3719 7.41531ZM30.0782 10.3123L33.6876 13.9216L31.2573 14.7312L29.2652 12.7391L30.0782 10.3123ZM12.7386 14.7312L10.3126 13.9216L13.9219 10.3123L14.7315 12.7417L12.7386 14.7312ZM11.6283 7.41531L13.2499 9.03609L9.03897 13.247L7.41561 11.628L11.6283 7.41531ZM13.897 15.5166L15.5169 13.8967L21.0273 19.407L19.4073 21.0269L13.897 15.5166ZM19.8937 22.4862L22.4865 19.8943L28.4823 13.8984L30.1031 15.5192L24.1073 21.5151L21.854 23.7666L15.5178 30.1028L13.897 28.482L19.8937 22.4862ZM11.6283 36.5799L7.41733 32.369L9.03811 30.7473L13.249 34.9583L11.6283 36.5799ZM13.9219 33.6873L10.3126 30.0779L12.7429 29.2684L14.7349 31.2604L13.9219 33.6873ZM24.5928 22.9726L30.1031 28.4829L28.4832 30.1028L22.9729 24.5925L24.5928 22.9726Z" fill="#222222"/>
</svg>
