<svg width="44" height="44" viewBox="0 0 44 44" fill="none" xmlns="http://www.w3.org/2000/svg">
<path d="M5.86669 18.3352H38.1334C38.3534 18.3352 38.5734 18.2619 38.7201 18.0419C38.8668 17.8219 38.9401 17.6019 38.8668 17.3819C36.74 9.75516 29.8467 4.40186 22 4.40186C14.1533 4.40186 7.26 9.75516 5.1333 17.3819C5.1333 17.6019 5.1333 17.8952 5.28 18.0419C5.42669 18.2619 5.64669 18.3352 5.86669 18.3352ZM22 5.86855C28.82 5.86855 34.98 10.3419 37.1067 16.8686H6.82C9.02 10.3419 15.18 5.86855 22 5.86855Z" fill="#222222"/>
<path d="M38.8667 21.4151C38.5734 21.3418 38.2067 21.3418 37.9134 21.3418C34.7601 21.3418 32.7801 22.9551 32.7801 25.5951C32.7801 27.9418 34.3934 29.9951 36.7401 30.5818C36.7401 30.5818 36.8134 30.5818 36.8868 30.5818C37.1801 30.5818 37.4001 30.4351 37.4001 30.2885C38.7201 27.7218 39.4534 25.8885 39.4534 22.9552C39.4534 22.7352 39.4534 22.5885 39.4534 22.3685V22.0752C39.4533 21.7818 39.2333 21.4885 38.8667 21.4151ZM38.2067 22.8085C38.2067 25.2285 37.62 26.8418 36.5934 28.8952C35.2 28.3818 34.32 27.0618 34.32 25.5218C34.32 23.0285 36.8867 22.7351 37.9867 22.7351C37.9867 22.7351 38.06 22.7351 38.2067 22.6618C38.2067 22.7351 38.2067 22.7351 38.2067 22.8085Z" fill="#222222"/>
<path d="M22.0733 31.022C17.4533 31.022 13.3466 32.6353 11.5866 35.202C11.3666 35.5687 11.4399 36.0087 11.7333 36.2287C14.74 38.4287 18.26 39.602 22 39.602C25.6667 39.602 29.26 38.4287 32.34 36.2287C32.6333 36.0087 32.7067 35.4954 32.4867 35.202C30.7267 32.6353 26.62 31.022 22.0733 31.022ZM22 38.1353C18.8467 38.1353 15.84 37.2553 13.2 35.4953C14.96 33.662 18.3333 32.4886 22 32.4886C25.6667 32.4886 29.1133 33.6619 30.8 35.4953C28.16 37.2553 25.1533 38.1353 22 38.1353Z" fill="#222222"/>
<path d="M22 0.00195312C9.9 0.00195312 0 9.90195 0 22.002C0 34.102 9.9 44.002 22 44.002C34.1 44.002 44 34.102 44 22.002C44 9.90195 34.1 0.00195312 22 0.00195312ZM22 42.5353C10.7067 42.5353 1.4667 33.2953 1.4667 22.002C1.4667 10.7086 10.7067 1.46865 22 1.46865C33.2933 1.46865 42.5333 10.7086 42.5333 22.002C42.5333 33.2953 33.2933 42.5353 22 42.5353Z" fill="#222222"/>
<path d="M5.93999 20.3882C5.64669 20.3882 5.27999 20.3882 4.98669 20.4615C4.69338 20.5348 4.39999 20.7548 4.39999 21.1215V21.4148C4.39999 21.6348 4.39999 21.7815 4.39999 22.0015C4.39999 24.8615 5.1333 27.6482 6.4533 30.2148C6.59999 30.4348 6.81999 30.5815 7.1133 30.5815C7.1866 30.5815 7.25999 30.5815 7.1133 30.5082C9.45999 29.9215 11.0733 27.8682 11.0733 25.5215C11.0733 22.7348 8.79999 20.3882 5.93999 20.3882ZM7.47999 28.9682C6.37999 26.7682 5.86669 24.4215 5.86669 22.0015C5.86669 21.9282 5.86669 21.9282 5.86669 21.8548C7.99338 21.7815 9.75338 23.4681 9.75338 25.5948C9.7533 27.0615 8.8733 28.3815 7.47999 28.9682Z" fill="#222222"/>
<path d="M14.6667 24.2023C14.6667 26.329 17.82 27.869 22 27.869C26.18 27.869 29.3333 26.329 29.3333 24.2023C29.3333 22.0756 26.18 20.5356 22 20.5356C17.82 20.5356 14.6667 22.0756 14.6667 24.2023ZM27.8667 24.2023C27.8667 25.0823 25.5934 26.4023 22 26.4023C18.4067 26.4023 16.1333 25.0823 16.1333 24.2023C16.1333 23.3223 18.4066 22.0023 22 22.0023C25.5933 22.0023 27.8667 23.3223 27.8667 24.2023Z" fill="#222222"/>
</svg>
