<svg width="24" height="24" viewBox="0 0 24 24" fill="none" xmlns="http://www.w3.org/2000/svg">
<path d="M1 15.0293C1 13.5848 1.28452 12.1544 1.83732 10.8198C2.39013 9.48519 3.20039 8.27257 4.22182 7.25112C5.24327 6.22967 6.45591 5.41942 7.79048 4.86662C9.12507 4.31382 10.5555 4.0293 12 4.0293C13.4445 4.0293 14.8749 4.31382 16.2095 4.86663C17.5441 5.41942 18.7567 6.22969 19.7782 7.25113C20.7996 8.27257 21.6099 9.48521 22.1627 10.8198C22.7154 12.1544 23 13.5848 23 15.0293" stroke="#7D7D7D" stroke-width="1.29412" stroke-linejoin="round"/>
<path d="M8.76471 16.3234C8.76471 15.8986 8.84839 15.4779 9.01098 15.0853C9.17357 14.6928 9.4119 14.3362 9.71226 14.0357C10.0128 13.7353 10.3694 13.4969 10.7619 13.3344C11.1544 13.1719 11.5751 13.0881 12 13.0881C12.4249 13.0881 12.8456 13.1719 13.2381 13.3344C13.6306 13.4969 13.9873 13.7353 14.2877 14.0357C14.5881 14.3362 14.8265 14.6928 14.989 15.0853C15.1516 15.4779 15.2353 15.8986 15.2353 16.3234" stroke="#7D7D7D" stroke-width="1.29412" stroke-linejoin="round"/>
<path d="M13.9412 13.0882L16.5294 9.20581" stroke="#7D7D7D" stroke-width="1.29412" stroke-linecap="round" stroke-linejoin="round"/>
<path d="M23 15.0293V15.6764C23 16.3911 22.4206 16.9705 21.7059 16.9705H2.29412C1.5794 16.9705 1 16.3911 1 15.6764V15.0293" stroke="#7D7D7D" stroke-width="1.29412" stroke-linecap="round" stroke-linejoin="round"/>
</svg>
