<svg width="24" height="24" viewBox="0 0 24 24" fill="none" xmlns="http://www.w3.org/2000/svg">
<path d="M1 15.0293C1 13.5848 1.28452 12.1544 1.83732 10.8198C2.39013 9.48519 3.20039 8.27257 4.22182 7.25112C5.24327 6.22967 6.45591 5.41942 7.79048 4.86662C9.12507 4.31382 10.5555 4.0293 12 4.0293C13.4445 4.0293 14.8749 4.31382 16.2095 4.86663C17.5441 5.41942 18.7567 6.22969 19.7782 7.25113C20.7996 8.27257 21.6099 9.48521 22.1627 10.8198C22.7154 12.1544 23 13.5848 23 15.0293" stroke="#7D7D7D" stroke-linejoin="round"/>
<path d="M8.76471 17.1176C8.76471 16.6928 8.84839 16.272 9.01098 15.8795C9.17357 15.487 9.4119 15.1304 9.71226 14.8299C10.0128 14.5295 10.3694 14.2911 10.7619 14.1286C11.1544 13.9661 11.5751 13.8823 12 13.8823C12.4249 13.8823 12.8456 13.9661 13.2381 14.1286C13.6306 14.2911 13.9873 14.5295 14.2877 14.8299C14.5881 15.1304 14.8265 15.487 14.989 15.8795C15.1516 16.272 15.2353 16.6928 15.2353 17.1176" stroke="#7D7D7D" stroke-linejoin="round"/>
<path d="M13.9412 13.8824L16.5294 10" stroke="#7D7D7D" stroke-linecap="round" stroke-linejoin="round"/>
<path d="M23 15.0293V15.6764C23 16.3911 22.4206 16.9705 21.7059 16.9705H2.29412C1.5794 16.9705 1 16.3911 1 15.6764V15.0293" stroke="#7D7D7D" stroke-linecap="round" stroke-linejoin="round"/>
</svg>
