<svg width="24" height="25" viewBox="0 0 24 25" fill="none" xmlns="http://www.w3.org/2000/svg">
<path fill-rule="evenodd" clip-rule="evenodd" d="M5.7876 14.5196C5.83137 14.5344 5.87555 14.5448 5.91969 14.5512C5.96783 14.6644 6.03002 14.8107 6.10258 14.9818C6.27966 15.3994 6.51825 15.9643 6.76452 16.5535C7.26677 17.7552 7.77338 18.9939 7.88527 19.3485C8.02378 19.7868 8.17019 20.0848 8.33002 20.2883C8.41267 20.3935 8.50825 20.4853 8.62009 20.5549C8.67639 20.5899 8.73587 20.6186 8.79795 20.64C8.80068 20.641 8.80341 20.6419 8.80614 20.6428C9.12616 20.7636 9.41792 20.7133 9.60059 20.6518C9.69833 20.6188 9.77741 20.5791 9.83346 20.5469C9.86204 20.5304 9.88618 20.5151 9.90544 20.5021L9.90998 20.4991L12.7362 18.7366L16.0007 21.2394C16.0489 21.2763 16.1014 21.3073 16.1571 21.3316C16.5493 21.5027 16.929 21.5624 17.2863 21.5136C17.6429 21.4649 17.9261 21.3151 18.1369 21.1464C18.3433 20.9813 18.4832 20.7963 18.5704 20.6589C18.6149 20.5887 18.6483 20.5266 18.6718 20.4791C18.6837 20.4552 18.6932 20.4346 18.7005 20.4181L18.71 20.3963L18.7135 20.3877L18.715 20.3841L18.7157 20.3824L18.7163 20.3808C18.7335 20.3379 18.7466 20.2935 18.7556 20.2482L21.7359 5.22274C21.7454 5.17469 21.7502 5.12581 21.7502 5.07682C21.7502 4.63681 21.5844 4.21841 21.1946 3.96452C20.8614 3.74752 20.4902 3.73818 20.2556 3.75598C20.0026 3.77519 19.7689 3.83766 19.612 3.88757C19.5304 3.91355 19.462 3.93861 19.4127 3.95773C19.3879 3.96734 19.3675 3.97559 19.3524 3.98188L19.341 3.98666L2.62731 10.5432L2.62515 10.544C2.6145 10.5479 2.60082 10.553 2.58457 10.5593C2.55221 10.5719 2.50884 10.5896 2.45819 10.6126C2.35941 10.6574 2.22083 10.7273 2.07862 10.8247C1.85143 10.9803 1.32894 11.4064 1.41692 12.1097C1.48711 12.6708 1.87149 13.0154 2.10568 13.1811C2.23427 13.2721 2.35644 13.3371 2.44541 13.3795C2.48668 13.3991 2.57238 13.4339 2.60956 13.4491L2.61895 13.4529L5.7876 14.5196ZM19.926 5.36786L19.9236 5.36888C19.9153 5.3725 19.9069 5.37596 19.8985 5.37928L3.16446 11.9438C3.15572 11.9472 3.14692 11.9505 3.13806 11.9536L3.12875 11.9571C3.11804 11.9613 3.10002 11.9686 3.0774 11.9788C3.06457 11.9846 3.05118 11.991 3.03753 11.9978C3.05629 12.0084 3.07423 12.0175 3.09018 12.0251C3.10549 12.0324 3.11717 12.0374 3.12356 12.04L6.26619 13.098C6.32371 13.1174 6.37733 13.143 6.42655 13.174L16.8033 7.09948L16.813 7.09374C16.8206 7.08927 16.8305 7.08353 16.8424 7.0768C16.866 7.06345 16.8985 7.04568 16.9371 7.02603C17.0091 6.98938 17.1243 6.93497 17.2541 6.89485C17.3445 6.86692 17.611 6.78823 17.8991 6.88064C18.0769 6.93767 18.261 7.06028 18.3807 7.26798C18.4402 7.37117 18.4719 7.47483 18.4872 7.56972C18.528 7.7192 18.5216 7.86681 18.4897 7.99424C18.4209 8.26875 18.228 8.48287 18.0525 8.64665C17.9022 8.78706 15.9568 10.6629 14.0377 12.5147C13.0806 13.4381 12.1333 14.3525 11.4253 15.0359L10.9602 15.4849L16.8322 19.9867C16.9668 20.0349 17.0464 20.0325 17.0833 20.0274C17.1272 20.0214 17.1631 20.0045 17.1998 19.9752C17.2408 19.9424 17.2767 19.898 17.3035 19.8557L17.3046 19.854L20.1951 5.28102C20.1522 5.29133 20.1088 5.30361 20.067 5.31691C20.0196 5.33198 19.9806 5.34634 19.9547 5.35637C19.9419 5.36134 19.9327 5.36511 19.9277 5.36719L19.926 5.36786ZM11.4647 17.7618L10.2932 16.8636L10.0093 18.6693L11.4647 17.7618ZM9.21852 15.0814L10.3835 13.9567C11.0916 13.2732 12.039 12.3588 12.9961 11.4352L13.9686 10.497L7.44859 14.3138L7.48357 14.3963C7.66127 14.8154 7.90093 15.3827 8.14851 15.9751C8.33364 16.418 8.52723 16.8844 8.70356 17.3162L8.98659 15.5158C9.01388 15.3422 9.09868 15.192 9.21852 15.0814Z" fill="#3B82F6"/>
</svg>
