<svg width="24" height="25" viewBox="0 0 24 25" fill="none" xmlns="http://www.w3.org/2000/svg">
<path fill-rule="evenodd" clip-rule="evenodd" d="M23.405 17.365C22.8611 16.2695 22.1444 15.2688 21.2825 14.4013C20.9892 14.0603 20.6453 13.7238 20.3768 13.4612L20.3393 13.4245C20.2008 13.2889 20.0864 13.1764 19.9928 13.0795C21.1713 11.4407 22.18 9.68595 23.003 7.84222L23.0362 7.76783L23.0595 7.68976C23.1676 7.32687 23.2922 6.6368 22.8515 6.01317C22.396 5.36859 21.6666 5.25234 21.1782 5.25234H18.9311C18.4627 5.23087 17.9988 5.35751 17.6058 5.61498C17.2098 5.87439 16.9069 6.25278 16.7402 6.6951C16.2563 7.84779 15.6508 8.9442 14.9347 9.96598V7.33269C14.9347 6.9923 14.9027 6.42289 14.5382 5.94229C14.1018 5.36685 13.4707 5.25234 13.0326 5.25234H9.46708C9.00771 5.24172 8.56094 5.40597 8.2176 5.71259C7.866 6.02659 7.65052 6.46521 7.61687 6.93543L7.61369 6.97997V7.02463C7.61369 7.51011 7.80606 7.86822 7.95975 8.09344C8.02856 8.19427 8.10216 8.28606 8.14865 8.34403L8.15938 8.35741C8.20895 8.41923 8.24204 8.46049 8.27525 8.50566C8.3626 8.62448 8.48824 8.80768 8.52379 9.28174V10.7547C7.9091 9.74423 7.26066 8.39957 6.77276 6.96344L6.76527 6.9414L6.75697 6.91965C6.63532 6.60103 6.4402 6.13743 6.04941 5.78266C5.59288 5.36821 5.0529 5.25234 4.56182 5.25234H2.28187C1.78506 5.25234 1.18613 5.36857 0.739237 5.83999C0.299773 6.30358 0.25 6.85907 0.25 7.15442V7.28755L0.278039 7.41769C0.909544 10.3488 2.21076 13.0937 4.07946 15.4377C4.92668 16.7737 6.07468 17.8936 7.43213 18.7075C8.81124 19.5345 10.3671 20.0219 11.9715 20.1297L12.0133 20.1325H12.0553C12.7811 20.1325 13.5378 20.0699 14.1068 19.6907C14.8744 19.1792 14.9347 18.3936 14.9347 18.0021V16.8642C15.1317 17.0234 15.3761 17.2378 15.6753 17.5259C16.037 17.8879 16.325 18.2016 16.572 18.4754L16.7038 18.622L16.7046 18.6228C16.8964 18.8364 17.0852 19.0467 17.2571 19.2195C17.4732 19.4367 17.7396 19.6761 18.0745 19.8529C18.4371 20.0444 18.8177 20.131 19.222 20.131H21.5035C21.9841 20.131 22.6735 20.0173 23.1582 19.4554C23.6864 18.843 23.6461 18.0924 23.48 17.553L23.4501 17.456L23.405 17.365ZM17.6857 17.4706C17.4289 17.1859 17.1192 16.8484 16.7278 16.4571L16.7246 16.4539C15.3685 15.1464 14.7348 14.9186 14.2868 14.9186C14.0485 14.9186 13.7848 14.9454 13.6137 15.1585C13.5329 15.2591 13.4905 15.3805 13.4667 15.507C13.4429 15.6333 13.4347 15.7816 13.4347 15.9505V18.0021C13.4347 18.2569 13.3928 18.3639 13.275 18.4425C13.118 18.5471 12.7825 18.6319 12.0637 18.6325C10.6993 18.5395 9.37641 18.1244 8.20349 17.4211C7.02817 16.7164 6.03709 15.7425 5.31187 14.5797L5.30398 14.5671L5.29464 14.5554C3.55337 12.3881 2.34003 9.84571 1.7503 7.1291C1.7535 6.99814 1.78187 6.92045 1.82784 6.87195C1.87521 6.82198 1.98999 6.75234 2.28187 6.75234H4.56182C4.81544 6.75234 4.9467 6.80751 5.04117 6.89327C5.14827 6.9905 5.24116 7.15561 5.35401 7.45042C5.91362 9.0964 6.67038 10.6357 7.387 11.7675C7.74518 12.3332 8.09769 12.8041 8.41529 13.1368C8.57383 13.303 8.72932 13.4406 8.8777 13.5385C9.02132 13.6332 9.18414 13.7079 9.35158 13.7079C9.43994 13.7079 9.54328 13.6988 9.64279 13.6547C9.74983 13.6074 9.83291 13.5284 9.89158 13.4225C9.99536 13.2353 10.0238 12.958 10.0238 12.5947V9.23099L10.0233 9.2231C9.97146 8.40476 9.72439 7.94443 9.48381 7.61718C9.43108 7.54546 9.37909 7.48068 9.33359 7.42399L9.32113 7.40846C9.27117 7.34616 9.23142 7.29582 9.19876 7.24795C9.13891 7.16024 9.11571 7.09909 9.11381 7.03356C9.12162 6.95578 9.15828 6.88361 9.21675 6.83139C9.27744 6.77719 9.35686 6.74897 9.43816 6.75234H13.0326C13.2387 6.75234 13.3081 6.80262 13.343 6.84868C13.3923 6.9137 13.4347 7.04893 13.4347 7.33269V11.8613C13.4347 12.3992 13.6827 12.7634 14.0428 12.7634C14.4572 12.7634 14.7559 12.512 15.2783 11.9896L15.287 11.9809L15.2948 11.9713C16.4656 10.5436 17.4225 8.95298 18.1347 7.24943L18.1392 7.23666C18.1928 7.08613 18.2941 6.95726 18.4278 6.8697C18.5614 6.78215 18.72 6.74072 18.8794 6.75175L18.8881 6.75234H21.1782C21.4905 6.75234 21.5933 6.83183 21.6265 6.87884C21.6618 6.92885 21.6864 7.03604 21.6264 7.24625C20.8053 9.08266 19.7899 10.8258 18.598 12.4464L18.5905 12.4578C18.4748 12.6348 18.3479 12.8306 18.3295 13.0554C18.3098 13.2968 18.4143 13.5163 18.597 13.7515C18.7302 13.9484 19.0049 14.2173 19.2836 14.4901L19.3099 14.5158C19.6021 14.8018 19.9186 15.1116 20.1727 15.4116L20.1795 15.4195L20.1869 15.4269C20.9444 16.1825 21.5743 17.056 22.052 18.0132C22.1283 18.2738 22.0816 18.407 22.0223 18.4757C21.953 18.5561 21.7976 18.631 21.5035 18.631H19.222C19.0438 18.631 18.9063 18.5959 18.7749 18.5265C18.638 18.4542 18.4972 18.3392 18.3206 18.1617C18.1784 18.0187 18.023 17.8457 17.8334 17.6348C17.7864 17.5825 17.7373 17.5277 17.6857 17.4706Z" fill="#3B82F6"/>
</svg>
