<svg width="24" height="24" viewBox="0 0 24 24" fill="none" xmlns="http://www.w3.org/2000/svg">
<g clip-path="url(#clip0_765_49182)">
<path d="M2.0029 22.4153C3.58755 23.9999 5.7772 23.9135 7.50589 22.1944C9.4843 20.216 11.4435 16.2592 14.1998 13.5029C16.3414 11.3613 18.7712 13.4453 21.7195 10.6218C22.9009 9.49814 23.5539 7.88469 23.3139 6.71298L19.626 7.72141C19.0114 7.88469 18.5696 7.49092 18.3775 6.82826L18.0989 5.85824C17.9068 5.19558 18.1374 4.63856 18.7519 4.47532L22.4302 3.47649C22.3246 3.14036 22.0077 2.67939 21.6139 2.27602C19.3955 -7.88569e-05 15.6788 0.257064 13.5371 2.06474C10.339 5.10914 12.7592 8.32642 10.656 10.4297C8.14935 12.9363 4.18296 14.9339 2.21419 16.9123C0.485505 18.6314 0.408662 20.821 2.0029 22.4153ZM2.91529 21.4933C1.87806 20.4369 1.9549 18.9483 3.10733 17.8054C5.09535 15.827 9.30182 13.6182 11.578 11.3421C14.0557 8.86424 11.4435 5.77184 14.4687 2.97712C15.9957 1.56532 18.6176 1.45968 20.3846 2.81384L18.4927 3.31325C17.0905 3.67818 16.4759 4.75381 16.8985 6.21361L17.1673 7.14519L18.2334 11.0539C16.5815 11.294 14.872 11.0059 13.2778 12.5809C10.7808 15.0779 8.60072 19.3132 6.61275 21.3108C5.45068 22.4825 3.95248 22.5593 2.91529 21.4933ZM14.0845 7.86545L16.1494 7.31804C16.3318 7.27004 16.4375 7.08755 16.3894 6.88586C16.3414 6.70338 16.1494 6.59774 15.9765 6.64578L13.9021 7.20279C13.7196 7.25079 13.6139 7.44288 13.662 7.61576C13.7196 7.81745 13.8829 7.92309 14.0845 7.86545ZM14.3438 8.92188L16.399 8.37446C16.5815 8.32642 16.6968 8.14398 16.6392 7.94229C16.5911 7.75981 16.399 7.66376 16.2262 7.70221L14.1517 8.26882C13.9693 8.30722 13.8637 8.49931 13.9117 8.67219C13.9693 8.87388 14.1421 8.97952 14.3438 8.92188ZM19.866 8.87388L21.8541 8.33606C21.6332 8.85464 21.3161 9.37325 20.8553 9.82462C20.2887 10.372 19.7027 10.689 19.0977 10.8618L18.56 8.90268C18.9441 9.01792 19.3859 9.00832 19.866 8.87388ZM14.5936 9.97831L16.6776 9.42129C16.8505 9.37325 16.9561 9.18121 16.9177 8.99872C16.8697 8.82584 16.6872 8.71059 16.4951 8.76819L14.4303 9.32525C14.2478 9.37325 14.1421 9.55574 14.1806 9.73822C14.219 9.93991 14.4111 10.0263 14.5936 9.97831ZM3.59715 20.8402C4.2022 21.4261 5.23939 21.4357 5.81565 20.8306C6.42066 20.1968 6.44946 19.1884 5.82525 18.5833C5.20099 17.9879 4.18296 17.9591 3.57795 18.5929C2.98249 19.2076 2.97289 20.2352 3.59715 20.8402Z" fill="#7D7D7D"/>
</g>
<defs>
<clipPath id="clip0_765_49182">
<rect width="24" height="24" fill="white"/>
</clipPath>
</defs>
</svg>
